<?xml version="1.0" encoding="UTF-8"?>
<svg width="119px" height="122px" viewBox="0 0 119 122" version="1.1" xmlns="http://www.w3.org/2000/svg" xmlns:xlink="http://www.w3.org/1999/xlink">
    <!-- Generator: Sketch 43 (38999) - http://www.bohemiancoding.com/sketch -->
    <title>icon</title>
    <desc>Created with Sketch.</desc>
    <defs></defs>
    <g id="Page-1" stroke="none" stroke-width="1" fill="none" fill-rule="evenodd">
        <g id="icon" fill-rule="nonzero" fill="#422575">
            <g id="Group" transform="translate(59.500000, 61.000000) scale(-1, 1) rotate(-180.000000) translate(-59.500000, -61.000000) translate(0.000000, -0.000000)">
                <path d="M6.6,121.4 C5.5,118.6 8,106.7 10.9,100.4 C16.5,88.3 25,82.3 37.7,81.2 C41.2,81 44,80.4 44,79.9 C44,78.7 38.3,77.8 32.3,78.2 C29,78.4 26.5,78.1 26.3,77.5 C25.7,75.5 32.5,65.6 36.7,62.4 C41.7,58.6 50.6,55.1 57.1,54.3 C63,53.6 65.1,52.4 63,51 C62.2,50.5 60.5,50 59.2,50 C54.8,50 49.2,46.2 46.3,41.3 C43.7,36.8 43.5,35.7 43.2,22.7 C42.8,9.9 42.7,8.8 40.7,7.5 C33,2.6 18,6.8 18,13.8 C18,16.8 19.2,18.8 26.7,28.5 C33.4,37 34.1,40.5 30.6,46.4 C29,49.2 28,52.3 28,54.9 C28,58.8 27.9,58.9 24.3,59.2 C20.7,59.5 20.5,59.7 20.2,63.3 C19.9,66.8 19.7,67 16.4,67 C13.2,67 13,67.2 13,70.5 C13,73.7 12.8,74 10.1,74 C7.5,74 7.1,74.4 6.8,77.3 C6.5,80.1 6.1,80.5 3.3,80.8 C0.1,81.1 0,81 0,77.6 C0,74.2 0.2,74 3.5,74 L7,74 L7,63.5 L7,53 L10.5,53 C13.8,53 14,52.8 14,49.5 L14,46.1 L20.2,45.8 C25.9,45.5 26.6,45.2 27.8,42.8 C29.5,39.3 28.5,37 21.6,28.6 C14.6,20.2 13,17.1 13,12.6 C13,7.7 17.3,3.8 24.7,1.7 C29.6,0.3 35.6,0 57.8,0 L85,0 L85,2.3 C85,6.4 83.7,7.1 76.6,6.9 C67.7,6.6 66.1,9.1 70.9,15.7 C73,18.5 81.1,23 84.1,23 C88.1,23 92.6,19.5 95,14.6 C97.5,9.3 97.2,7.7 93.3,5.8 C91.7,5.1 90.4,3.5 90.2,2.2 C89.9,0 89.9,0 104.4,0 C120,0 120.6,0.2 117.4,4.9 C115.9,7 115.2,7.1 110.4,6.5 C103.5,5.7 103,6.7 103,20.8 C103,29.8 103.3,32 104.7,33.1 C109.4,37.1 111.2,47.3 108.5,55 C106.5,60.8 106.6,62.3 109,61.7 C111.6,61 111.9,62.5 110.5,68.5 C108.8,76 106.4,79.7 101,83.6 C95.1,87.8 94.2,91.4 98.6,93 C100,93.6 101.7,94 102.4,93.9 C105.4,93.5 106,94.2 106,98 C106,102.7 104.3,106.8 102.1,107.4 C101.2,107.6 95.8,107.8 90.1,107.8 C80.3,107.8 79.3,107.6 72.6,104.4 C68,102.2 64.1,101 61.3,101 C58.9,101 57,100.5 57,100 C57,98.1 62.2,94 66.2,92.8 L70,91.7 L70,85.4 C70,81.6 69.5,78.8 68.8,78.4 C68.1,77.9 65.5,80 62.1,83.7 C55.5,90.8 53.9,91.9 41.7,97.4 C30.2,102.6 25.4,105.9 15.2,115.5 C9,121.3 7.1,122.6 6.6,121.4 Z" id="Shape"></path>
            </g>
        </g>
    </g>
</svg>